<svg
		xmlns="http://www.w3.org/2000/svg"
		viewBox="0 0 20 20">
  <g
     id="g195"
     transform="matrix(0.32142857,0,0,0.32142857,0.71875,5.4352678)">
    <path
       style="fill:#000000;fill-opacity:1;fill-rule:nonzero;stroke:none;stroke-width:0.933333"
       d="m 23.897222,-0.73194508 -2.8,-0.93333252 c 0,0.93333333 -0.933333,1.86666667 -1.866666,1.86666667 H 7.4083333 c -0.9333333,0 -1.8666666,-0.93333334 -1.8666666,-1.86666667 v -5.6 c 0,-0.9333333 0.9333333,-1.8666667 1.8666666,-1.8666667 H 19.230556 c 0.933333,0 1.713227,0.9460324 1.866666,1.8666667 v 5.6 l 2.8,0.93333252 h 1.866667 V -8.1986113 c 0,-3.1111107 -2.488889,-5.5999997 -5.6,-5.5999997 H 6.4749996 c -3.111111,0 -5.59999991,2.488889 -5.59999991,5.5999997 v 7.46666622 c 0,3.11111168 2.48888891,5.59999988 5.59999991,5.59999988 H 20.163889 c 3.111111,0 5.6,-2.4888882 5.6,-5.59999988 z"
       id="path158" />
    <path
       style="fill:#000000;fill-opacity:1;fill-rule:nonzero;stroke:none;stroke-width:0.933333"
       d="m 23.897222,36.601389 -2.8,-0.933333 c 0,0.933333 -0.933334,1.866667 -1.866667,1.866667 H 7.4083333 c -0.9333333,0 -1.8666666,-0.933334 -1.8666666,-1.866667 V 17.623612 c 0,-0.933333 0.9333333,-1.866667 1.8666666,-1.866667 H 19.230555 c 0.933333,0 1.820821,0.93446 1.866667,1.866667 v 18.044444 l 2.8,0.933333 h 1.866667 V 16.690278 c 0,-3.111112 -2.488889,-5.6 -5.6,-5.6 H 6.4749998 c -3.111111,0 -5.59999986,2.488888 -5.59999986,5.6 v 19.911111 c 0,3.111111 2.48888886,5.6 5.59999986,5.6 H 20.163889 c 3.111111,0 5.6,-2.488889 5.6,-5.6 z"
       id="path162" />
    <path
       style="fill:#000000;fill-opacity:1;fill-rule:nonzero;stroke:none;stroke-width:0.933333"
       d="m 55.008333,36.601389 -2.799999,-0.933333 c 0,0.933333 -0.933334,1.866666 -1.866667,1.866666 H 38.519445 c -0.933333,0 -1.866667,-0.933333 -1.866667,-1.866666 v -5.6 c 0,-0.933333 0.933334,-1.866667 1.866667,-1.866667 h 11.822222 c 0.933333,0 1.866667,0.933334 1.866667,1.866667 v 5.6 l 2.799999,0.933333 H 56.875 v -7.466667 c 0,-3.111112 -2.488889,-5.6 -5.6,-5.6 H 37.586111 c -3.111111,0 -5.6,2.488888 -5.6,5.6 v 7.466667 c 0,3.11111 2.488889,5.6 5.6,5.6 H 51.275 c 3.111111,0 5.6,-2.48889 5.6,-5.6 z"
       id="path166" />
    <path
       style="fill:#000000;fill-opacity:1;fill-rule:nonzero;stroke:none;stroke-width:0.933333"
       d="m 55.008338,11.7125 -2.800003,-0.933333 c 0,0.933333 -0.93333,1.866667 -1.86667,1.866667 H 38.519446 c -0.93334,0 -1.86667,-0.933334 -1.86667,-1.866667 V -7.2652776 c 0,-0.933333 0.93333,-1.8666668 1.86667,-1.8666668 h 11.822219 c 0.93334,0 1.86667,0.9333338 1.86667,1.8666668 V 10.779167 l 2.800003,0.933333 h 1.86666 V -8.1986112 c 0,-3.1111118 -2.48889,-5.5999998 -5.6,-5.5999998 H 37.586116 c -3.11112,0 -5.6,2.488888 -5.6,5.5999998 V 11.7125 c 0,3.111112 2.48888,5.6 5.6,5.6 h 13.688882 c 3.11111,0 5.6,-2.488888 5.6,-5.6 z"
       id="path162-4" />
  </g>
</svg>
