<svg
	xmlns="http://www.w3.org/2000/svg"
	viewBox="0 0 20 20">
  <path
     style="color:#000000;font-style:normal;font-variant:normal;font-weight:normal;font-stretch:normal;font-size:medium;line-height:normal;font-family:sans-serif;font-variant-ligatures:normal;font-variant-position:normal;font-variant-caps:normal;font-variant-numeric:normal;font-variant-alternates:normal;font-variant-east-asian:normal;font-feature-settings:normal;font-variation-settings:normal;text-indent:0;text-align:start;text-decoration:none;text-decoration-line:none;text-decoration-style:solid;text-decoration-color:#000000;letter-spacing:normal;word-spacing:normal;text-transform:none;writing-mode:lr-tb;direction:ltr;text-orientation:mixed;dominant-baseline:auto;baseline-shift:baseline;text-anchor:start;white-space:normal;shape-padding:0;shape-margin:0;inline-size:0;clip-rule:nonzero;display:inline;overflow:visible;visibility:visible;opacity:1;isolation:auto;mix-blend-mode:normal;color-interpolation:sRGB;color-interpolation-filters:linearRGB;solid-color:#000000;solid-opacity:1;vector-effect:none;fill:#000000;fill-opacity:1;fill-rule:nonzero;stroke:none;stroke-width:0.941176;stroke-linecap:butt;stroke-linejoin:miter;stroke-miterlimit:4;stroke-dasharray:none;stroke-dashoffset:0;stroke-opacity:1;color-rendering:auto;image-rendering:auto;shape-rendering:auto;text-rendering:auto;enable-background:accumulate;stop-color:#000000;stop-opacity:1"
     d="M 3.7408088,2 C 2.7755426,2 2,2.7755427 2,3.7408088 v 2.5187868 c 0,0.965266 0.7755427,1.7408088 1.7408088,1.7408088 h 3.5187868 c 0.9652661,0 1.7409667,-0.7755428 1.7408089,-1.7408088 L 8.9999927,3.7408088 C 8.9998349,2.7755426 8.2248618,2 7.2595956,2 Z m 0,0.9411765 h 3.5187868 c 0.5170866,0 0.7996324,0.2825454 0.7996324,0.7996323 v 2.5187868 c 0,0.5170866 -0.2825457,0.7996324 -0.7996325,0.7996324 H 3.7408088 c -0.5170868,0 -0.7996323,-0.2825458 -0.7996323,-0.7996324 V 3.7408088 c 0,-0.5170869 0.2825456,-0.7996323 0.7996323,-0.7996323 z"
     id="path1187"/>
  <path
     style="color:#000000;font-style:normal;font-variant:normal;font-weight:normal;font-stretch:normal;font-size:medium;line-height:normal;font-family:sans-serif;font-variant-ligatures:normal;font-variant-position:normal;font-variant-caps:normal;font-variant-numeric:normal;font-variant-alternates:normal;font-variant-east-asian:normal;font-feature-settings:normal;font-variation-settings:normal;text-indent:0;text-align:start;text-decoration:none;text-decoration-line:none;text-decoration-style:solid;text-decoration-color:#000000;letter-spacing:normal;word-spacing:normal;text-transform:none;writing-mode:lr-tb;direction:ltr;text-orientation:mixed;dominant-baseline:auto;baseline-shift:baseline;text-anchor:start;white-space:normal;shape-padding:0;shape-margin:0;inline-size:0;clip-rule:nonzero;display:inline;overflow:visible;visibility:visible;opacity:1;isolation:auto;mix-blend-mode:normal;color-interpolation:sRGB;color-interpolation-filters:linearRGB;solid-color:#000000;solid-opacity:1;vector-effect:none;fill:#000000;fill-opacity:1;fill-rule:nonzero;stroke:none;stroke-width:0.941176;stroke-linecap:butt;stroke-linejoin:miter;stroke-miterlimit:4;stroke-dasharray:none;stroke-dashoffset:0;stroke-opacity:1;color-rendering:auto;image-rendering:auto;shape-rendering:auto;text-rendering:auto;enable-background:accumulate;stop-color:#000000;stop-opacity:1"
     d="M 3.7408088,9.001478 C 2.7755427,9.0014135 2,9.7772561 2,10.742522 v 5.51667 C 2,17.224458 2.7755427,18 3.7408088,18 h 3.5187868 c 0.9652661,0 1.7408089,-0.775542 1.7408089,-1.740808 v -5.51667 c 0,-0.9652659 -0.7755428,-1.7407442 -1.7408089,-1.7408087 z m 0,0.9414118 h 3.5187868 c 0.5170867,0 0.7996324,0.2825462 0.7996324,0.7996322 v 5.51667 c 0,0.517088 -0.2825457,0.799632 -0.7996325,0.799632 H 3.7408088 c -0.5170868,0 -0.7996323,-0.282544 -0.7996323,-0.799632 v -5.51667 c 0,-0.517086 0.2825456,-0.7996322 0.7996323,-0.7996322 z"
     id="path1195" />
  <path
     style="color:#000000;font-style:normal;font-variant:normal;font-weight:normal;font-stretch:normal;font-size:medium;line-height:normal;font-family:sans-serif;font-variant-ligatures:normal;font-variant-position:normal;font-variant-caps:normal;font-variant-numeric:normal;font-variant-alternates:normal;font-variant-east-asian:normal;font-feature-settings:normal;font-variation-settings:normal;text-indent:0;text-align:start;text-decoration:none;text-decoration-line:none;text-decoration-style:solid;text-decoration-color:#000000;letter-spacing:normal;word-spacing:normal;text-transform:none;writing-mode:lr-tb;direction:ltr;text-orientation:mixed;dominant-baseline:auto;baseline-shift:baseline;text-anchor:start;white-space:normal;shape-padding:0;shape-margin:0;inline-size:0;clip-rule:nonzero;display:inline;overflow:visible;visibility:visible;opacity:1;isolation:auto;mix-blend-mode:normal;color-interpolation:sRGB;color-interpolation-filters:linearRGB;solid-color:#000000;solid-opacity:1;vector-effect:none;fill:#000000;fill-opacity:1;fill-rule:nonzero;stroke:none;stroke-width:0.941176;stroke-linecap:butt;stroke-linejoin:miter;stroke-miterlimit:4;stroke-dasharray:none;stroke-dashoffset:0;stroke-opacity:1;color-rendering:auto;image-rendering:auto;shape-rendering:auto;text-rendering:auto;enable-background:accumulate;stop-color:#000000;stop-opacity:1"
     d="M 11.740809,11.999595 C 10.775542,11.999595 10,12.775139 10,13.740404 v 2.518788 C 10,17.224457 10.775542,18 11.740809,18 h 3.517787 c 0.965266,0 1.740808,-0.775543 1.740808,-1.740808 v -2.518788 c 0,-0.965265 -0.775542,-1.740809 -1.740808,-1.740809 z m 0,0.941177 h 3.517787 c 0.517087,0 0.799632,0.282546 0.799632,0.799632 v 2.518788 c 0,0.517088 -0.282544,0.799632 -0.799632,0.799632 h -3.517787 c -0.517088,0 -0.799632,-0.282544 -0.799632,-0.799632 v -2.518788 c 0,-0.517086 0.282545,-0.799632 0.799632,-0.799632 z"
     id="path1199" />
  <path
     style="color:#000000;font-style:normal;font-variant:normal;font-weight:normal;font-stretch:normal;font-size:medium;line-height:normal;font-family:sans-serif;font-variant-ligatures:normal;font-variant-position:normal;font-variant-caps:normal;font-variant-numeric:normal;font-variant-alternates:normal;font-variant-east-asian:normal;font-feature-settings:normal;font-variation-settings:normal;text-indent:0;text-align:start;text-decoration:none;text-decoration-line:none;text-decoration-style:solid;text-decoration-color:#000000;letter-spacing:normal;word-spacing:normal;text-transform:none;writing-mode:lr-tb;direction:ltr;text-orientation:mixed;dominant-baseline:auto;baseline-shift:baseline;text-anchor:start;white-space:normal;shape-padding:0;shape-margin:0;inline-size:0;clip-rule:nonzero;display:inline;overflow:visible;visibility:visible;opacity:1;isolation:auto;mix-blend-mode:normal;color-interpolation:sRGB;color-interpolation-filters:linearRGB;solid-color:#000000;solid-opacity:1;vector-effect:none;fill:#000000;fill-opacity:1;fill-rule:nonzero;stroke:none;stroke-width:0.941176;stroke-linecap:butt;stroke-linejoin:miter;stroke-miterlimit:4;stroke-dasharray:none;stroke-dashoffset:0;stroke-opacity:1;color-rendering:auto;image-rendering:auto;shape-rendering:auto;text-rendering:auto;enable-background:accumulate;stop-color:#000000;stop-opacity:1"
     d="M 11.740809,2 C 10.775542,2 10,2.7755431 10,3.7408088 v 5.5177868 c 0,0.9652644 0.775542,1.7408084 1.740809,1.7408084 h 3.517787 c 0.965266,0 1.740808,-0.775544 1.740808,-1.7408084 V 3.7408088 C 16.999404,2.7755431 16.223862,2 15.258596,2 Z m 0,0.9411765 h 3.517787 c 0.517088,0 0.799632,0.282545 0.799632,0.7996323 v 5.5177868 c 0,0.5170868 -0.282544,0.7996314 -0.799632,0.7996314 h -3.517787 c -0.517088,0 -0.799632,-0.2825446 -0.799632,-0.7996314 V 3.7408088 c 0,-0.5170873 0.282544,-0.7996323 0.799632,-0.7996323 z"
     id="path1191" />
</svg>
