<svg
		xmlns="http://www.w3.org/2000/svg"
		viewBox="0 0 20 20">
  <g
     id="g195"
     transform="matrix(0.32142857,0,0,0.32142857,0.71875,5.4352678)">
    <path
       style="fill:#000000;fill-opacity:1;fill-rule:nonzero;stroke:none;stroke-width:0.933333"
       d="m 23.897222,0.20138907 -2.8,-1.24444447 c 0,0.93333335 -0.311111,1.24444447 -1.244444,1.24444447 H 6.7861111 c -0.9333333,0 -1.2444444,-0.31111112 -1.2444444,-1.24444447 v -6.8444445 c 0,-0.9333333 0.3111111,-1.2444444 1.2444444,-1.2444444 H 19.852778 c 0.933333,0 1.244444,0.3111111 1.244444,1.2444444 v 6.8444445 l 2.8,1.24444447 h 1.866667 V -9.1319441 c 0,-3.1111109 -1.555556,-4.6666669 -4.666667,-4.6666669 H 5.5416669 c -3.111111,0 -4.66666721,1.555556 -4.66666721,4.6666665 v 9.33333357 c 0,3.11111163 1.55555581,4.66666573 4.66666681,4.66666573 H 21.097222 c 3.111111,0 4.666667,-1.5555541 4.666667,-4.66666573 z"
       id="path158" />
    <path
       style="fill:#000000;fill-opacity:1;fill-rule:nonzero;stroke:none;stroke-width:0.933333"
       d="m 23.897222,37.534723 -2.8,-1.244445 c 0,0.933333 -0.311111,1.244445 -1.244444,1.244445 H 6.7861111 c -0.9333333,0 -1.2444444,-0.311112 -1.2444444,-1.244445 V 17.001389 c 0,-0.933333 0.3111111,-1.244444 1.2444444,-1.244444 H 19.852778 c 0.933333,0 1.244444,0.31111 1.244444,1.244444 v 19.288889 l 2.8,1.244445 h 1.866667 V 15.756945 c 0,-3.111112 -1.555556,-4.666667 -4.666667,-4.666667 H 5.5416667 c -3.111111,0 -4.66666676,1.555555 -4.66666676,4.666667 v 21.777778 c 0,3.111111 1.55555576,4.666666 4.66666676,4.666666 H 21.097222 c 3.111111,0 4.666667,-1.555555 4.666667,-4.666666 z"
       id="path162" />
    <path
       style="fill:#000000;fill-opacity:1;fill-rule:nonzero;stroke:none;stroke-width:0.933333"
       d="m 55.008333,37.534723 -2.799999,-1.244445 c 0,0.933333 -0.311112,1.244444 -1.244445,1.244444 H 37.897222 c -0.933333,0 -1.244444,-0.311111 -1.244444,-1.244444 v -6.844444 c 0,-0.933333 0.311111,-1.244445 1.244444,-1.244445 h 13.066667 c 0.933333,0 1.244445,0.311112 1.244445,1.244445 v 6.844444 l 2.799999,1.244445 H 56.875 v -9.333334 c 0,-3.111112 -1.555555,-4.666667 -4.666666,-4.666667 H 36.652778 c -3.111111,0 -4.666667,1.555555 -4.666667,4.666667 v 9.333334 c 0,3.11111 1.555556,4.666666 4.666667,4.666666 h 15.555556 c 3.111111,0 4.666666,-1.555556 4.666666,-4.666666 z"
       id="path166" />
    <path
       style="fill:#000000;fill-opacity:1;fill-rule:nonzero;stroke:none;stroke-width:0.933333"
       d="m 55.008338,12.645834 -2.800003,-1.244445 c 0,0.933333 -0.311106,1.244445 -1.244446,1.244445 H 37.897222 c -0.93334,0 -1.244446,-0.311112 -1.244446,-1.244445 V -7.8874999 c 0,-0.933333 0.311106,-1.2444445 1.244446,-1.2444445 h 13.066667 c 0.93334,0 1.244446,0.3111115 1.244446,1.2444445 V 11.401389 l 2.800003,1.244445 h 1.86666 V -9.1319443 c 0,-3.1111117 -1.555554,-4.6666667 -4.666664,-4.6666667 H 36.652778 c -3.11112,0 -4.666668,1.555555 -4.666667,4.6666667 l 5e-6,21.7777783 c 1e-6,3.111112 1.555542,4.666666 4.666662,4.666666 h 15.555556 c 3.11111,0 4.666664,-1.555554 4.666664,-4.666666 z"
       id="path162-4" />
  </g>
</svg>
