<svg
   xmlns="http://www.w3.org/2000/svg"
   viewBox="0 0 24 24">
  <g
     transform="matrix(0.32142857,0,0,0.32142857,2.7187501,7.4352678)">
    <path
       d="m 23.897222,-0.73194508 c -1.866667,0 -1.866667,0 -1.866667,0 0,0.93333334 -0.933333,1.86666668 -1.866666,1.86666668 -13.6888894,0 -13.6888894,0 -13.6888894,0 -0.9333333,0 -1.8666666,-0.93333334 -1.8666666,-1.86666668 0,-7.46666622 0,-7.46666622 0,-7.46666622 0,-0.9333333 0.9333333,-1.8666667 1.8666666,-1.8666667 13.6888894,0 13.6888894,0 13.6888894,0 0.933333,0 1.866666,0.9333334 1.866666,1.8666667 0,7.46666622 0,7.46666622 0,7.46666622 1.866667,0 1.866667,0 1.866667,0 1.866667,0 1.866667,0 1.866667,0 0,-7.46666622 0,-7.46666622 0,-7.46666622 0,-3.1111107 -2.488889,-5.5999997 -5.6,-5.5999997 -13.6888894,0 -13.6888894,0 -13.6888894,0 -3.111111,0 -5.59999991,2.488889 -5.59999991,5.5999997 0,7.46666622 0,7.46666622 0,7.46666622 0,3.11111168 2.48888891,5.59999988 5.59999991,5.59999988 13.6888894,0 13.6888894,0 13.6888894,0 3.111111,0 5.6,-2.4888882 5.6,-5.59999988 z"
       />
    <path
       d="m 23.897222,36.601389 h -1.866666 c 0,0.933333 -0.933334,1.866667 -1.866667,1.866667 H 6.4749998 c -0.9333333,0 -1.8666666,-0.933334 -1.8666666,-1.866667 V 16.690278 c 0,-0.933333 0.9333333,-1.866667 1.8666666,-1.866667 H 20.163889 c 0.933333,0 1.866667,0.933334 1.866667,1.866667 v 19.911111 h 1.866666 1.866667 V 16.690278 c 0,-3.111112 -2.488889,-5.6 -5.6,-5.6 H 6.4749998 c -3.111111,0 -5.59999986,2.488888 -5.59999986,5.6 v 19.911111 c 0,3.111111 2.48888886,5.6 5.59999986,5.6 H 20.163889 c 3.111111,0 5.6,-2.488889 5.6,-5.6 z"
       />
    <path
       d="m 55.008333,36.601389 c -1.866666,0 -1.866666,0 -1.866666,0 0,0.933333 -0.933334,1.866666 -1.866667,1.866666 -13.688889,0 -13.688889,0 -13.688889,0 -0.933333,0 -1.866667,-0.933333 -1.866667,-1.866666 0,-7.466667 0,-7.466667 0,-7.466667 0,-0.933333 0.933334,-1.866667 1.866667,-1.866667 13.688889,0 13.688889,0 13.688889,0 0.933333,0 1.866667,0.933334 1.866667,1.866667 0,7.466667 0,7.466667 0,7.466667 1.866666,0 1.866666,0 1.866666,0 1.866667,0 1.866667,0 1.866667,0 0,-7.466667 0,-7.466667 0,-7.466667 0,-3.111112 -2.488889,-5.6 -5.6,-5.6 -13.688889,0 -13.688889,0 -13.688889,0 -3.111111,0 -5.6,2.488888 -5.6,5.6 0,7.466667 0,7.466667 0,7.466667 0,3.11111 2.488889,5.6 5.6,5.6 13.688889,0 13.688889,0 13.688889,0 3.111111,0 5.6,-2.48889 5.6,-5.6 z"
       />
    <path
       d="m 55.008338,11.7125 h -1.86667 c 0,0.933333 -0.93333,1.866667 -1.86667,1.866667 H 37.586116 c -0.93334,0 -1.86667,-0.933334 -1.86667,-1.866667 V -8.1986112 c 0,-0.933333 0.93333,-1.8666668 1.86667,-1.8666668 h 13.688882 c 0.93334,0 1.86667,0.9333338 1.86667,1.8666668 V 11.7125 h 1.86667 1.86666 V -8.1986112 c 0,-3.1111118 -2.48889,-5.5999998 -5.6,-5.5999998 H 37.586116 c -3.11112,0 -5.6,2.488888 -5.6,5.5999998 V 11.7125 c 0,3.111112 2.48888,5.6 5.6,5.6 h 13.688882 c 3.11111,0 5.6,-2.488888 5.6,-5.6 z"
       />
  </g>
</svg>
