<svg width="24" height="24" xmlns="http://www.w3.org/2000/svg" viewBox="0 0 24 24" role="img" aria-hidden="true" focusable="false"><path d="M 4.9587257,11.999964 C 3.8726262,11.99989 3,12.872855 3,13.958954 v 5.082754 c 0,1.086099 0.8726262,1.958725 1.9587257,1.958725 h 4.0820867 c 1.0860996,0 1.9587266,-0.872626 1.9587266,-1.958725 v -5.082755 c 0,-1.086098 -0.872627,-1.958655 -1.9587266,-1.958725 z m 0.94114,2.000135 h 2.2002686 c 0.5818159,0 0.8997314,0.317914 0.8997314,0.89973 v 3.200305 c 0,0.581818 -0.3179155,0.899731 -0.8997314,0.899731 H 5.8998657 c -0.5818165,0 -0.8997314,-0.317913 -0.8997314,-0.899731 V 14.89983 c 0,-0.581816 0.317915,-0.899731 0.8997314,-0.899731 z" id="path1195"></path><path d="M 4.9584093,3 C 3.8724849,2.9999262 3,3.8727495 3,4.9586739 v 3.0830855 c 0,1.0859235 0.8724849,1.9584086 1.9584093,1.9584086 h 4.0833859 c 1.0859238,0 1.9584098,-0.8724851 1.9584098,-1.9584086 V 4.958673 c 0,-1.0859235 -0.872486,-1.9583392 -1.9584098,-1.9584093 z" id="path1195-2"></path><path d="M 14.958726,2.999865 C 13.872626,2.999791 13,3.872756 13,4.958855 v 5.082322 c 0,1.086099 0.872626,1.958725 1.958726,1.958725 h 4.082086 c 1.0861,0 1.958727,-0.872626 1.958727,-1.958725 V 4.958854 c 0,-1.086098 -0.872627,-1.958655 -1.958727,-1.958725 z M 15.899866,5 h 2.200268 c 0.581816,0 0.899732,0.317914 0.899732,0.89973 v 3.199873 c 0,0.581818 -0.317916,0.899731 -0.899732,0.899731 h -2.200268 c -0.581817,0 -0.899732,-0.317913 -0.899732,-0.899731 V 5.899731 C 15.000134,5.317915 15.318049,5 15.899866,5 Z" id="path1195-0"></path><path d="M 14.958409,13.999604 C 13.872485,13.99953 13,14.872353 13,15.958278 v 3.083518 c 0,1.085923 0.872485,1.958408 1.958409,1.958408 h 4.083386 c 1.085924,0 1.95841,-0.872485 1.95841,-1.958408 v -3.083519 c 0,-1.085924 -0.872486,-1.958339 -1.95841,-1.958409 z" id="path1195-2-3"></path></svg>