<svg
		xmlns="http://www.w3.org/2000/svg"
		viewBox="0 0 20 20">
  <path
     style="color:#000000;font-style:normal;font-variant:normal;font-weight:normal;font-stretch:normal;font-size:medium;line-height:normal;font-family:sans-serif;font-variant-ligatures:normal;font-variant-position:normal;font-variant-caps:normal;font-variant-numeric:normal;font-variant-alternates:normal;font-variant-east-asian:normal;font-feature-settings:normal;font-variation-settings:normal;text-indent:0;text-align:start;text-decoration:none;text-decoration-line:none;text-decoration-style:solid;text-decoration-color:#000000;letter-spacing:normal;word-spacing:normal;text-transform:none;writing-mode:lr-tb;direction:ltr;text-orientation:mixed;dominant-baseline:auto;baseline-shift:baseline;text-anchor:start;white-space:normal;shape-padding:0;shape-margin:0;inline-size:0;clip-rule:nonzero;display:inline;overflow:visible;visibility:visible;opacity:1;isolation:auto;mix-blend-mode:normal;color-interpolation:sRGB;color-interpolation-filters:linearRGB;solid-color:#000000;solid-opacity:1;vector-effect:none;fill:#000000;fill-opacity:1;fill-rule:nonzero;stroke:none;stroke-width:0.941176;stroke-linecap:butt;stroke-linejoin:miter;stroke-miterlimit:4;stroke-dasharray:none;stroke-dashoffset:0;stroke-opacity:1;color-rendering:auto;image-rendering:auto;shape-rendering:auto;text-rendering:auto;enable-background:accumulate;stop-color:#000000;stop-opacity:1"
     d="M 3.7408088,2 C 2.7755426,2 2,2.7755427 2,3.7408088 V 5.90625 c 0,0.965266 0.7755427,1.7408088 1.7408088,1.7408088 h 4.0477941 c 0.9652661,0 1.7408089,-0.7755428 1.7408089,-1.7408088 V 3.7408088 C 9.5294118,2.7755426 8.7538691,2 7.7886029,2 Z m 0,0.9411765 h 4.0477941 c 0.5170866,0 0.7996324,0.2825454 0.7996324,0.7996323 V 5.90625 c 0,0.5170866 -0.2825456,0.7996324 -0.7996324,0.7996324 H 3.7408088 C 3.223722,6.7058824 2.9411765,6.4233366 2.9411765,5.90625 V 3.7408088 c 0,-0.5170869 0.2825456,-0.7996323 0.7996323,-0.7996323 z"
     id="path1187" />
  <path
     style="color:#000000;font-style:normal;font-variant:normal;font-weight:normal;font-stretch:normal;font-size:medium;line-height:normal;font-family:sans-serif;font-variant-ligatures:normal;font-variant-position:normal;font-variant-caps:normal;font-variant-numeric:normal;font-variant-alternates:normal;font-variant-east-asian:normal;font-feature-settings:normal;font-variation-settings:normal;text-indent:0;text-align:start;text-decoration:none;text-decoration-line:none;text-decoration-style:solid;text-decoration-color:#000000;letter-spacing:normal;word-spacing:normal;text-transform:none;writing-mode:lr-tb;direction:ltr;text-orientation:mixed;dominant-baseline:auto;baseline-shift:baseline;text-anchor:start;white-space:normal;shape-padding:0;shape-margin:0;inline-size:0;clip-rule:nonzero;display:inline;overflow:visible;visibility:visible;opacity:1;isolation:auto;mix-blend-mode:normal;color-interpolation:sRGB;color-interpolation-filters:linearRGB;solid-color:#000000;solid-opacity:1;vector-effect:none;fill:#000000;fill-opacity:1;fill-rule:nonzero;stroke:none;stroke-width:0.941176;stroke-linecap:butt;stroke-linejoin:miter;stroke-miterlimit:4;stroke-dasharray:none;stroke-dashoffset:0;stroke-opacity:1;color-rendering:auto;image-rendering:auto;shape-rendering:auto;text-rendering:auto;enable-background:accumulate;stop-color:#000000;stop-opacity:1"
     d="M 3.7408088,8.5882353 C 2.7755427,8.5882353 2,9.3637781 2,10.329044 v 5.930148 C 2,17.224458 2.7755427,18 3.7408088,18 h 4.0477941 c 0.9652661,0 1.7408089,-0.775542 1.7408089,-1.740808 v -5.930148 c 0,-0.9652659 -0.7755428,-1.7408087 -1.7408089,-1.7408087 z m 0,0.9411765 h 4.0477941 c 0.5170867,0 0.7996324,0.2825458 0.7996324,0.7996322 v 5.930148 c 0,0.517088 -0.2825456,0.799632 -0.7996324,0.799632 H 3.7408088 c -0.5170868,0 -0.7996323,-0.282544 -0.7996323,-0.799632 v -5.930148 c 0,-0.5170864 0.2825456,-0.7996322 0.7996323,-0.7996322 z"
     id="path1195" />
  <path
     style="color:#000000;font-style:normal;font-variant:normal;font-weight:normal;font-stretch:normal;font-size:medium;line-height:normal;font-family:sans-serif;font-variant-ligatures:normal;font-variant-position:normal;font-variant-caps:normal;font-variant-numeric:normal;font-variant-alternates:normal;font-variant-east-asian:normal;font-feature-settings:normal;font-variation-settings:normal;text-indent:0;text-align:start;text-decoration:none;text-decoration-line:none;text-decoration-style:solid;text-decoration-color:#000000;letter-spacing:normal;word-spacing:normal;text-transform:none;writing-mode:lr-tb;direction:ltr;text-orientation:mixed;dominant-baseline:auto;baseline-shift:baseline;text-anchor:start;white-space:normal;shape-padding:0;shape-margin:0;inline-size:0;clip-rule:nonzero;display:inline;overflow:visible;visibility:visible;opacity:1;isolation:auto;mix-blend-mode:normal;color-interpolation:sRGB;color-interpolation-filters:linearRGB;solid-color:#000000;solid-opacity:1;vector-effect:none;fill:#000000;fill-opacity:1;fill-rule:nonzero;stroke:none;stroke-width:0.941176;stroke-linecap:butt;stroke-linejoin:miter;stroke-miterlimit:4;stroke-dasharray:none;stroke-dashoffset:0;stroke-opacity:1;color-rendering:auto;image-rendering:auto;shape-rendering:auto;text-rendering:auto;enable-background:accumulate;stop-color:#000000;stop-opacity:1"
     d="m 12.211397,12.352941 c -0.965267,0 -1.740809,0.775544 -1.740809,1.740809 v 2.165442 C 10.470588,17.224457 11.24613,18 12.211397,18 h 4.047795 C 17.224458,18 18,17.224457 18,16.259192 V 14.09375 c 0,-0.965265 -0.775542,-1.740809 -1.740808,-1.740809 z m 0,0.941177 h 4.047795 c 0.517087,0 0.799632,0.282546 0.799632,0.799632 v 2.165442 c 0,0.517088 -0.282544,0.799632 -0.799632,0.799632 h -4.047795 c -0.517088,0 -0.799632,-0.282544 -0.799632,-0.799632 V 14.09375 c 0,-0.517086 0.282545,-0.799632 0.799632,-0.799632 z"
     id="path1199" />
  <path
     style="color:#000000;font-style:normal;font-variant:normal;font-weight:normal;font-stretch:normal;font-size:medium;line-height:normal;font-family:sans-serif;font-variant-ligatures:normal;font-variant-position:normal;font-variant-caps:normal;font-variant-numeric:normal;font-variant-alternates:normal;font-variant-east-asian:normal;font-feature-settings:normal;font-variation-settings:normal;text-indent:0;text-align:start;text-decoration:none;text-decoration-line:none;text-decoration-style:solid;text-decoration-color:#000000;letter-spacing:normal;word-spacing:normal;text-transform:none;writing-mode:lr-tb;direction:ltr;text-orientation:mixed;dominant-baseline:auto;baseline-shift:baseline;text-anchor:start;white-space:normal;shape-padding:0;shape-margin:0;inline-size:0;clip-rule:nonzero;display:inline;overflow:visible;visibility:visible;opacity:1;isolation:auto;mix-blend-mode:normal;color-interpolation:sRGB;color-interpolation-filters:linearRGB;solid-color:#000000;solid-opacity:1;vector-effect:none;fill:#000000;fill-opacity:1;fill-rule:nonzero;stroke:none;stroke-width:0.941176;stroke-linecap:butt;stroke-linejoin:miter;stroke-miterlimit:4;stroke-dasharray:none;stroke-dashoffset:0;stroke-opacity:1;color-rendering:auto;image-rendering:auto;shape-rendering:auto;text-rendering:auto;enable-background:accumulate;stop-color:#000000;stop-opacity:1"
     d="M 12.211397,2 C 11.24613,2 10.470588,2.7755431 10.470588,3.7408088 v 5.9301474 c 0,0.9652648 0.775542,1.7408088 1.740809,1.7408088 h 4.047795 C 17.224458,11.411765 18,10.636221 18,9.6709562 V 3.7408088 C 18,2.7755431 17.224458,2 16.259192,2 Z m 0,0.9411765 h 4.047795 c 0.517088,0 0.799632,0.282545 0.799632,0.7996323 v 5.9301474 c 0,0.5170868 -0.282544,0.7996318 -0.799632,0.7996318 h -4.047795 c -0.517088,0 -0.799632,-0.282545 -0.799632,-0.7996318 V 3.7408088 c 0,-0.5170873 0.282544,-0.7996323 0.799632,-0.7996323 z"
     id="path1191" />
</svg>
