<svg
		xmlns="http://www.w3.org/2000/svg"
		viewBox="0 0 20 20">
  <path
     style="fill:#191919;fill-opacity:1;fill-rule:nonzero;stroke:none;stroke-width:0.337499"
     d="M 9,5.65 C 9,6.4374998 8.4374999,6.9999998 7.65,6.9999998 H 3.35 C 2.5625,6.9999998 2,6.4374998 2,5.65 V 3.3500002 C 2,2.5625001 2.5625,1.9999998 3.35,1.9999998 h 4.3 c 0.7874999,0 1.35,0.5625003 1.35,1.3500004 z"
     id="path269" />
  <path
     style="fill:#191919;fill-opacity:1;fill-rule:nonzero;stroke:none;stroke-width:0.337499"
     d="M 9,16.649999 C 9,17.4375 8.4374999,18 7.65,18 H 3.35 C 2.5625,18 2,17.4375 2,16.649999 V 10.35 C 2,9.5625001 2.5625,9 3.35,9 h 4.3 C 8.4374999,9 9,9.5625001 9,10.35 Z"
     id="path271" />
  <path
     style="fill:#191919;fill-opacity:1;fill-rule:nonzero;stroke:none;stroke-width:0.337499"
     d="M 18,16.649999 C 18,17.4375 17.437501,18 16.65,18 h -4.3 C 11.562499,18 11,17.4375 11,16.649999 V 14.35 C 11,13.562501 11.562499,13 12.35,13 h 4.3 c 0.787501,0 1.35,0.562501 1.35,1.35 z"
     id="path273" />
  <path
     style="fill:#191919;fill-opacity:1;fill-rule:nonzero;stroke:none;stroke-width:0.337499"
     d="M 18,9.65 C 18,10.4375 17.437501,11 16.65,11 h -4.3 C 11.562499,11 11,10.4375 11,9.65 V 3.3500002 c 0,-0.7875001 0.562499,-1.3500004 1.35,-1.3500004 h 4.3 c 0.787501,0 1.35,0.5625003 1.35,1.3500004 z"
     id="path275" />
</svg>
